<svg width="198" height="62" viewBox="0 0 198 62" fill="none" xmlns="http://www.w3.org/2000/svg">
<path d="M20.32 33.5729C20.0427 34.0849 19.5733 34.3409 18.912 34.3409C18.272 34.3409 17.8453 34.2556 17.632 34.0849C17.44 33.8929 17.344 33.4129 17.344 32.6449C17.344 31.8556 17.76 30.0423 18.592 27.2049C19.424 24.3463 19.84 22.7036 19.84 22.2769C19.84 21.8289 19.7547 21.6049 19.584 21.6049C19.328 21.6049 19.008 21.8289 18.624 22.2769C18.24 22.7036 17.92 23.1303 17.664 23.5569L17.28 24.2289C15.9147 26.4476 14.6667 28.6769 13.536 30.9169C12.4267 33.1356 11.6053 34.7676 11.072 35.8129C10.56 36.8369 10.112 37.4876 9.728 37.7649C9.344 38.0423 8.78933 38.1809 8.064 38.1809C7.36 38.1809 7.008 38.0209 7.008 37.7009V37.6049C7.008 37.3916 7.56267 36.3996 8.672 34.6289C12.768 28.1223 15.8507 22.8103 17.92 18.6929C18.4107 17.7116 18.656 16.7943 18.656 15.9409V15.5569C18.656 15.1729 19.0933 14.8636 19.968 14.6289C20.864 14.3943 21.6 14.2769 22.176 14.2769H23.232C24.128 14.2769 24.7893 14.4476 25.216 14.7889C25.408 14.9169 25.504 15.0876 25.504 15.3009C25.504 15.5143 25.0773 16.9969 24.224 19.7489C23.392 22.4796 22.976 24.1223 22.976 24.6769C22.976 25.2316 23.0613 25.5089 23.232 25.5089C23.7653 25.5089 24.704 24.8583 26.048 23.5569C27.392 22.2343 28.928 20.6556 30.656 18.8209C32.064 17.2849 33.408 15.9623 34.688 14.8529C34.9653 14.5969 35.296 14.4476 35.68 14.4049C36.512 14.2769 37.3973 14.2129 38.336 14.2129C39.296 14.2129 39.776 14.4263 39.776 14.8529C39.776 14.9383 39.7653 15.0023 39.744 15.0449C39.744 15.0876 39.3493 15.7383 38.56 16.9969C37.7707 18.2343 36.8107 19.7809 35.68 21.6369C34.5493 23.4716 33.4187 25.3809 32.288 27.3649C31.1573 29.3276 30.1973 31.2049 29.408 32.9969C28.6187 34.7676 28.224 36.0689 28.224 36.9009C28.032 37.2636 27.7333 37.4449 27.328 37.4449C25.216 37.4449 24.16 37.0716 24.16 36.3249C24.16 34.5969 26.304 30.4476 30.592 23.8769C31.1467 23.0449 31.424 22.5223 31.424 22.3089C31.424 22.0956 31.264 21.9889 30.944 21.9889C30.1333 21.9889 28.4267 23.4396 25.824 26.3409C23.2213 29.2209 21.3867 31.6316 20.32 33.5729ZM23.9385 57.0609C23.0425 57.0609 22.5945 56.3143 22.5945 54.8209C22.5945 53.3276 23.0318 51.6636 23.9065 49.8289C24.7812 48.0156 25.8372 46.3409 27.0745 44.8049C28.2905 43.2903 29.5918 41.9996 30.9785 40.9329C32.3652 39.8663 33.5278 39.3329 34.4665 39.3329C34.7865 39.3329 34.9465 39.4076 34.9465 39.5569C34.9465 39.7063 34.8185 39.8449 34.5625 39.9729C33.7518 40.3996 32.7172 41.3063 31.4585 42.6929C30.2212 44.1009 29.1012 45.7009 28.0985 47.4929C27.0745 49.3063 26.5625 50.8316 26.5625 52.0689C26.5625 52.6023 26.7545 52.8689 27.1385 52.8689C27.8852 52.8689 29.0158 51.8236 30.5305 49.7329C32.9838 46.3836 35.4905 42.1169 38.0505 36.9329C38.8185 35.3969 39.2025 34.4796 39.2025 34.1809C39.2025 33.8823 39.1172 33.7329 38.9465 33.7329C38.7332 33.7329 38.5198 33.8396 38.3065 34.0529C35.9172 36.1009 34.0612 37.1249 32.7385 37.1249C31.7785 37.1249 31.2985 36.6129 31.2985 35.5889C31.2985 34.5436 31.8638 32.9436 32.9945 30.7889C34.1465 28.6129 35.3092 26.9383 36.4825 25.7649C36.7385 25.5089 37.0905 25.3063 37.5385 25.1569C37.9865 24.9863 38.4452 24.9009 38.9145 24.9009C39.4052 24.9009 39.6505 25.0076 39.6505 25.2209C39.6505 25.3063 39.3092 25.7969 38.6265 26.6929C36.5572 29.4449 35.5225 31.4076 35.5225 32.5809C35.5225 33.0929 35.7465 33.3489 36.1945 33.3489C36.9838 33.3489 38.1998 32.5809 39.8425 31.0449C41.5065 29.5089 42.9572 27.7063 44.1945 25.6369C44.5785 24.8689 45.4318 24.4849 46.7545 24.4849C47.3945 24.4849 47.7145 24.6129 47.7145 24.8689C47.7145 24.9329 47.6825 25.0183 47.6185 25.1249C45.5492 28.5383 43.6612 31.8343 41.9545 35.0129C40.2478 38.1703 38.8718 40.6023 37.8265 42.3089C36.8025 44.0369 35.6505 45.8289 34.3705 47.6849C33.1118 49.5409 31.8958 51.1303 30.7225 52.4529C29.5705 53.7969 28.3972 54.8956 27.2025 55.7489C25.9865 56.6236 24.8985 57.0609 23.9385 57.0609ZM58.7773 26.4369L56.0253 26.3409C54.6813 26.3409 53.6573 26.7783 52.9533 27.6529C51.8226 29.1249 50.6493 31.0556 49.4333 33.4449C48.2386 35.8129 47.4066 37.1676 46.9373 37.5089C46.1693 38.1063 45.1879 38.4049 43.9932 38.4049C43.3532 38.4049 43.0332 38.2663 43.0332 37.9889V37.8929C43.0332 37.6583 43.7692 36.2716 45.2413 33.7329C46.7346 31.1729 48.3773 28.3249 50.1693 25.1889C51.9826 22.0529 53.1453 19.8983 53.6573 18.7249C54.1906 17.5516 54.4573 16.5489 54.4573 15.7169V15.3969C54.4573 15.0343 56.7293 14.8529 61.2733 14.8529C62.7666 14.8529 64.0679 14.8743 65.1773 14.9169C65.4973 14.5543 66.3079 14.3729 67.6093 14.3729C68.1853 14.3729 68.4733 14.5116 68.4733 14.7889C68.4733 15.3009 67.9506 16.3356 66.9053 17.8929C65.8813 19.4289 65.0173 20.4209 64.3133 20.8689C64.0146 21.0183 63.7266 21.0929 63.4493 21.0929C63.1719 21.0929 63.0333 21.0076 63.0333 20.8369C63.0333 20.8156 63.0866 20.6983 63.1933 20.4849C63.4919 19.8876 63.6413 19.1729 63.6413 18.3409C63.6413 17.1676 62.8199 16.5809 61.1772 16.5809C60.1959 16.5809 59.4173 16.8369 58.8413 17.3489C58.2866 17.8609 57.7319 18.5756 57.1773 19.4929C56.6226 20.4103 56.2066 21.1996 55.9293 21.8609C55.6733 22.5223 55.5453 22.9809 55.5453 23.2369C55.5453 23.4716 55.6626 23.6956 55.8973 23.9089C56.1319 24.1223 57.2733 24.2289 59.3213 24.2289C60.2386 24.2289 60.8573 24.2183 61.1772 24.1969C61.4973 24.1543 61.6679 24.1329 61.6893 24.1329C61.8813 24.1329 61.9773 24.2076 61.9773 24.3569C61.9773 24.4423 61.9666 24.5063 61.9453 24.5489C61.6466 25.2743 61.2839 25.7756 60.8573 26.0529C60.4519 26.3089 59.7586 26.4369 58.7773 26.4369ZM58.3938 38.2129C58.3938 37.3596 58.7458 36.0369 59.4498 34.2449C60.1538 32.4316 60.9431 30.6716 61.8177 28.9649C62.6924 27.2583 63.8764 25.1569 65.3698 22.6609C67.5884 18.9703 69.8711 15.3116 72.2178 11.6849C72.5804 11.1089 73.1458 10.6396 73.9138 10.2769C74.6818 9.91428 75.3751 9.73295 75.9938 9.73295C76.6124 9.73295 76.9324 9.90361 76.9538 10.2449C76.9538 10.3516 76.8898 10.4689 76.7618 10.5969C76.0364 11.2583 74.8204 12.7943 73.1138 15.2049C71.4071 17.5943 69.5938 20.3356 67.6738 23.4289C65.7751 26.5223 64.1004 29.7863 62.6498 33.2209C61.2204 36.6556 60.5058 39.4609 60.5058 41.6369C60.5058 41.9569 60.4098 42.1169 60.2178 42.1169C59.8551 42.1169 59.5458 41.9783 59.2898 41.7009C59.0338 41.4449 58.8524 41.1143 58.7458 40.7089C58.5111 39.8983 58.3938 39.0663 58.3938 38.2129ZM65.3978 38.6289C65.0991 38.6289 64.7684 38.4369 64.4058 38.0529C64.0431 37.6903 63.8618 37.2423 63.8618 36.7089C63.8618 36.4103 64.5551 34.9063 65.9418 32.1969C67.3498 29.4663 68.0751 27.6209 68.1178 26.6609C68.1178 26.3623 68.3098 26.0849 68.6938 25.8289C69.3764 25.4236 70.3898 25.2209 71.7338 25.2209C71.9898 25.2209 72.2564 25.2743 72.5338 25.3809C72.8324 25.4663 72.9818 25.5943 72.9818 25.7649C72.9818 25.8503 72.9498 25.9249 72.8858 25.9889C72.0751 27.0129 70.8911 28.8583 69.3338 31.5249C67.7764 34.1916 66.6031 36.3569 65.8138 38.0209C65.7071 38.4263 65.5684 38.6289 65.3978 38.6289ZM72.4058 23.4289C71.4671 23.4289 70.9764 23.0556 70.9338 22.3089V22.2769C70.9338 21.6369 71.2431 21.1143 71.8618 20.7089C72.5018 20.3036 73.1311 20.1009 73.7498 20.1009C74.6884 20.1009 75.1791 20.4743 75.2218 21.2209C75.2218 21.8609 74.9124 22.3943 74.2938 22.8209C73.6751 23.2263 73.0458 23.4289 72.4058 23.4289ZM66.3915 53.0929C67.3088 53.0929 68.7488 51.6103 70.7115 48.6449C72.6955 45.7009 74.4555 42.7569 75.9915 39.8129C77.5275 36.8689 78.2955 35.2476 78.2955 34.9489C78.2955 34.6289 78.2102 34.4689 78.0395 34.4689C77.8688 34.4689 77.5808 34.6396 77.1755 34.9809C76.7702 35.3009 76.3328 35.6636 75.8635 36.0689C75.4155 36.4743 74.8288 36.8369 74.1035 37.1569C73.3995 37.4983 72.6955 37.6689 71.9915 37.6689C71.1168 37.6689 70.6795 37.0183 70.6795 35.7169C70.6795 34.6716 70.9675 33.4983 71.5435 32.1969C72.1195 30.8743 72.9088 29.6049 73.9115 28.3889C74.9142 27.1516 76.2262 26.1169 77.8475 25.2849C79.4688 24.4529 81.2075 24.0369 83.0635 24.0369C83.5328 24.0369 84.0448 24.1223 84.5995 24.2929C85.7088 24.6343 86.2635 25.2529 86.2635 26.1489C86.2635 26.7889 86.0822 27.1089 85.7195 27.1089C85.6128 27.1089 85.4315 27.0343 85.1755 26.8849C84.4075 26.3729 83.2235 26.1169 81.6235 26.1169C80.0235 26.1169 78.4662 26.9169 76.9515 28.5169C75.4582 30.0956 74.7115 31.6423 74.7115 33.1569C74.7115 33.6903 74.9355 33.9569 75.3835 33.9569C76.0662 33.9569 77.0048 33.4769 78.1995 32.5169C79.4155 31.5356 80.6208 30.0956 81.8155 28.1969C81.8795 27.8983 82.3702 27.7489 83.2875 27.7489C84.2048 27.7489 84.6635 27.9089 84.6635 28.2289C84.6635 28.4636 83.9168 29.9996 82.4235 32.8369C80.9515 35.6529 79.7035 37.9676 78.6795 39.7809C77.6555 41.6156 76.4182 43.6423 74.9675 45.8609C73.5382 48.0796 72.1835 49.9889 70.9035 51.5889C69.6235 53.1889 68.2902 54.5329 66.9035 55.6209C65.5168 56.7303 64.2795 57.2849 63.1915 57.2849C62.2955 57.2849 61.8475 56.5383 61.8475 55.0449C61.8475 53.5516 62.2848 51.8876 63.1595 50.0529C64.0342 48.2396 65.0902 46.5649 66.3275 45.0289C67.5435 43.5143 68.8448 42.2236 70.2315 41.1569C71.6182 40.0903 72.7808 39.5569 73.7195 39.5569H73.8155C74.0715 39.5569 74.1995 39.6316 74.1995 39.7809C74.1995 39.9303 74.0715 40.0689 73.8155 40.1969C73.0048 40.6023 71.9702 41.4983 70.7115 42.8849C69.4742 44.2929 68.3542 45.9036 67.3515 47.7169C66.3275 49.5303 65.8155 51.0556 65.8155 52.2929V52.3249C65.8155 52.8369 66.0075 53.0929 66.3915 53.0929ZM97.5995 25.1569C98.5168 25.1569 98.9755 25.6903 98.9755 26.7569C98.9755 27.8236 98.6022 29.1676 97.8555 30.7889C96.7675 33.0716 95.5302 35.0449 94.1435 36.7089C93.4822 37.4983 92.6502 37.8929 91.6475 37.8929C91.3275 37.8929 91.1675 37.8076 91.1675 37.6369L91.2955 37.2849C92.2982 35.8129 93.1835 34.2983 93.9515 32.7409C94.7408 31.1623 95.1355 30.0209 95.1355 29.3169C95.1355 29.1889 95.0928 29.0823 95.0075 28.9969C94.9435 28.9116 94.8262 28.8583 94.6555 28.8369C93.7808 28.8369 92.5968 29.5516 91.1035 30.9809C89.6315 32.4103 88.3515 33.8503 87.2635 35.3009C86.1968 36.7516 85.5035 37.7543 85.1835 38.3089C84.8848 38.8849 84.5755 39.2263 84.2555 39.3329C83.9355 39.4609 83.4128 39.5249 82.6875 39.5249C81.9622 39.5249 81.5995 39.3969 81.5995 39.1409C81.5995 39.0556 81.7062 38.8529 81.9195 38.5329C82.1115 38.2129 82.8688 36.7729 84.1915 34.2129C85.5355 31.6529 86.9435 29.0503 88.4155 26.4049C89.9088 23.7383 91.5302 21.0183 93.2795 18.2449C95.0502 15.4716 96.8102 13.2103 98.5595 11.4609C100.33 9.69028 101.866 8.80495 103.168 8.80495C104.17 8.80495 104.672 9.39161 104.672 10.5649C104.672 12.8263 103.637 15.2476 101.568 17.8289C99.5195 20.4103 97.6422 22.0956 95.9355 22.8849C95.5515 23.0556 95.1462 23.1409 94.7195 23.1409C94.3142 23.1409 94.1115 23.0449 94.1115 22.8529L94.3035 22.5329C96.3942 21.0823 98.0475 19.4076 99.2635 17.5089C100.501 15.6103 101.12 14.2769 101.12 13.5089C101.12 13.2529 101.088 13.0823 101.024 12.9969C100.96 12.8903 100.81 12.8369 100.576 12.8369C99.8075 12.8369 98.5488 14.0849 96.7995 16.5809C95.0715 19.0769 93.5142 21.6476 92.1275 24.2929C90.7408 26.9383 90.0475 28.5489 90.0475 29.1249C90.0475 29.3596 90.1222 29.4769 90.2715 29.4769C90.4422 29.4769 90.6662 29.3703 90.9435 29.1569C91.2635 28.8583 91.6688 28.4849 92.1595 28.0369C92.6715 27.5889 93.5142 27.0023 94.6875 26.2769C95.8822 25.5303 96.8528 25.1569 97.5995 25.1569ZM113.878 16.5489L115.446 16.4849C115.659 16.4849 115.766 16.5276 115.766 16.6129C115.766 16.6983 115.744 16.8049 115.702 16.9329C115.659 17.0609 115.563 17.2209 115.414 17.4129C115.286 17.6049 115.126 17.7756 114.934 17.9249C114.422 18.3303 113.782 18.5329 113.014 18.5329C112.267 18.5329 111.712 18.5543 111.35 18.5969C111.008 18.6396 110.71 18.7463 110.454 18.9169C110.198 19.0876 110.027 19.2156 109.942 19.3009C109.856 19.3863 109.707 19.5996 109.494 19.9409C109.28 20.2823 109.131 20.5169 109.046 20.6449C107.915 22.2236 106.08 25.1996 103.542 29.5729C101.024 33.9463 99.4562 37.3276 98.8375 39.7169C98.7735 39.9303 98.5708 40.0369 98.2295 40.0369C97.9095 40.0369 97.4615 39.7596 96.8855 39.2049C96.3095 38.6503 96.0215 38.0849 96.0215 37.5089C96.0215 36.9329 96.8855 35.2156 98.6135 32.3569C100.363 29.4983 102.112 26.6929 103.862 23.9409C105.611 21.1676 106.486 19.6316 106.486 19.3329C106.486 19.0129 106.358 18.8209 106.102 18.7569C105.846 18.6716 105.398 18.6289 104.758 18.6289H103.702C103.424 18.6289 103.286 18.5009 103.286 18.2449C103.286 17.9889 103.403 17.7223 103.638 17.4449C103.894 17.1463 104.267 16.8903 104.758 16.6769C105.27 16.4636 105.782 16.2503 106.294 16.0369C106.827 15.8236 107.51 15.3436 108.342 14.5969C109.195 13.8503 110.048 12.8903 110.902 11.7169C111.435 10.9916 112.352 10.6289 113.654 10.6289C114.102 10.6289 114.326 10.7676 114.326 11.0449C114.326 11.2156 113.846 11.9943 112.885 13.3809C111.926 14.7676 111.446 15.6423 111.446 16.0049C111.446 16.3463 111.766 16.5169 112.406 16.5169C112.662 16.5383 113.152 16.5489 113.878 16.5489Z" fill="black"/>
<ellipse cx="127.898" cy="35.1155" rx="8" ry="7" transform="rotate(-26 127.898 35.1155)" fill="black"/>
<path d="M168.451 15.0385L129.439 35.9931L127.92 32.8796L168.013 14.1397L168.451 15.0385Z" fill="black"/>
<path d="M87.3348 54.6014L126.347 33.6468L127.866 36.7603L87.7732 55.5002L87.3348 54.6014Z" fill="black"/>
<rect x="119.547" y="20.2744" width="2" height="15" transform="rotate(-26 119.547 20.2744)" fill="black"/>
<rect x="112.268" y="32.7252" width="25" height="2" transform="rotate(-26 112.268 32.7252)" fill="black"/>
<path d="M121.227 35.1249C120.882 34.4181 121.078 33.5627 121.711 33.0963C124.501 31.0411 126.654 29.977 130.098 29.0051C130.865 28.7886 131.672 29.1652 132.021 29.8816V29.8816C132.463 30.7883 132.011 31.875 131.064 32.2227C128.261 33.2519 126.228 34.1878 123.671 35.797C122.815 36.3357 121.67 36.0339 121.227 35.1249V35.1249Z" fill="white"/>
</svg>
