<svg width="198" height="56" viewBox="0 0 198 56" fill="none" xmlns="http://www.w3.org/2000/svg">
<path d="M20.32 28.576C20.0427 29.088 19.5733 29.344 18.912 29.344C18.272 29.344 17.8453 29.2587 17.632 29.088C17.44 28.896 17.344 28.416 17.344 27.648C17.344 26.8587 17.76 25.0453 18.592 22.208C19.424 19.3493 19.84 17.7067 19.84 17.28C19.84 16.832 19.7547 16.608 19.584 16.608C19.328 16.608 19.008 16.832 18.624 17.28C18.24 17.7067 17.92 18.1333 17.664 18.56L17.28 19.232C15.9147 21.4507 14.6667 23.68 13.536 25.92C12.4267 28.1387 11.6053 29.7707 11.072 30.816C10.56 31.84 10.112 32.4907 9.728 32.768C9.344 33.0453 8.78933 33.184 8.064 33.184C7.36 33.184 7.008 33.024 7.008 32.704V32.608C7.008 32.3947 7.56267 31.4027 8.672 29.632C12.768 23.1253 15.8507 17.8133 17.92 13.696C18.4107 12.7147 18.656 11.7973 18.656 10.944V10.56C18.656 10.176 19.0933 9.86667 19.968 9.632C20.864 9.39733 21.6 9.28 22.176 9.28H23.232C24.128 9.28 24.7893 9.45067 25.216 9.792C25.408 9.92 25.504 10.0907 25.504 10.304C25.504 10.5173 25.0773 12 24.224 14.752C23.392 17.4827 22.976 19.1253 22.976 19.68C22.976 20.2347 23.0613 20.512 23.232 20.512C23.7653 20.512 24.704 19.8613 26.048 18.56C27.392 17.2373 28.928 15.6587 30.656 13.824C32.064 12.288 33.408 10.9653 34.688 9.856C34.9653 9.6 35.296 9.45067 35.68 9.408C36.512 9.28 37.3973 9.216 38.336 9.216C39.296 9.216 39.776 9.42933 39.776 9.856C39.776 9.94133 39.7653 10.0053 39.744 10.048C39.744 10.0907 39.3493 10.7413 38.56 12C37.7707 13.2373 36.8107 14.784 35.68 16.64C34.5493 18.4747 33.4187 20.384 32.288 22.368C31.1573 24.3307 30.1973 26.208 29.408 28C28.6187 29.7707 28.224 31.072 28.224 31.904C28.032 32.2667 27.7333 32.448 27.328 32.448C25.216 32.448 24.16 32.0747 24.16 31.328C24.16 29.6 26.304 25.4507 30.592 18.88C31.1467 18.048 31.424 17.5253 31.424 17.312C31.424 17.0987 31.264 16.992 30.944 16.992C30.1333 16.992 28.4267 18.4427 25.824 21.344C23.2213 24.224 21.3867 26.6347 20.32 28.576ZM23.9385 52.064C23.0425 52.064 22.5945 51.3173 22.5945 49.824C22.5945 48.3307 23.0318 46.6667 23.9065 44.832C24.7812 43.0187 25.8372 41.344 27.0745 39.808C28.2905 38.2933 29.5918 37.0027 30.9785 35.936C32.3652 34.8693 33.5278 34.336 34.4665 34.336C34.7865 34.336 34.9465 34.4107 34.9465 34.56C34.9465 34.7093 34.8185 34.848 34.5625 34.976C33.7518 35.4027 32.7172 36.3093 31.4585 37.696C30.2212 39.104 29.1012 40.704 28.0985 42.496C27.0745 44.3093 26.5625 45.8347 26.5625 47.072C26.5625 47.6053 26.7545 47.872 27.1385 47.872C27.8852 47.872 29.0158 46.8267 30.5305 44.736C32.9838 41.3867 35.4905 37.12 38.0505 31.936C38.8185 30.4 39.2025 29.4827 39.2025 29.184C39.2025 28.8853 39.1172 28.736 38.9465 28.736C38.7332 28.736 38.5198 28.8427 38.3065 29.056C35.9172 31.104 34.0612 32.128 32.7385 32.128C31.7785 32.128 31.2985 31.616 31.2985 30.592C31.2985 29.5467 31.8638 27.9467 32.9945 25.792C34.1465 23.616 35.3092 21.9413 36.4825 20.768C36.7385 20.512 37.0905 20.3093 37.5385 20.16C37.9865 19.9893 38.4452 19.904 38.9145 19.904C39.4052 19.904 39.6505 20.0107 39.6505 20.224C39.6505 20.3093 39.3092 20.8 38.6265 21.696C36.5572 24.448 35.5225 26.4107 35.5225 27.584C35.5225 28.096 35.7465 28.352 36.1945 28.352C36.9838 28.352 38.1998 27.584 39.8425 26.048C41.5065 24.512 42.9572 22.7093 44.1945 20.64C44.5785 19.872 45.4318 19.488 46.7545 19.488C47.3945 19.488 47.7145 19.616 47.7145 19.872C47.7145 19.936 47.6825 20.0213 47.6185 20.128C45.5492 23.5413 43.6612 26.8373 41.9545 30.016C40.2478 33.1733 38.8718 35.6053 37.8265 37.312C36.8025 39.04 35.6505 40.832 34.3705 42.688C33.1118 44.544 31.8958 46.1333 30.7225 47.456C29.5705 48.8 28.3972 49.8987 27.2025 50.752C25.9865 51.6267 24.8985 52.064 23.9385 52.064ZM58.7773 21.44L56.0253 21.344C54.6813 21.344 53.6573 21.7813 52.9533 22.656C51.8226 24.128 50.6493 26.0587 49.4333 28.448C48.2386 30.816 47.4066 32.1707 46.9373 32.512C46.1693 33.1093 45.1879 33.408 43.9932 33.408C43.3532 33.408 43.0332 33.2693 43.0332 32.992V32.896C43.0332 32.6613 43.7692 31.2747 45.2413 28.736C46.7346 26.176 48.3773 23.328 50.1693 20.192C51.9826 17.056 53.1453 14.9013 53.6573 13.728C54.1906 12.5547 54.4573 11.552 54.4573 10.72V10.4C54.4573 10.0373 56.7293 9.856 61.2733 9.856C62.7666 9.856 64.0679 9.87733 65.1773 9.92C65.4973 9.55733 66.3079 9.376 67.6093 9.376C68.1853 9.376 68.4733 9.51467 68.4733 9.792C68.4733 10.304 67.9506 11.3387 66.9053 12.896C65.8813 14.432 65.0173 15.424 64.3133 15.872C64.0146 16.0213 63.7266 16.096 63.4493 16.096C63.1719 16.096 63.0333 16.0107 63.0333 15.84C63.0333 15.8187 63.0866 15.7013 63.1933 15.488C63.4919 14.8907 63.6413 14.176 63.6413 13.344C63.6413 12.1707 62.8199 11.584 61.1772 11.584C60.1959 11.584 59.4173 11.84 58.8413 12.352C58.2866 12.864 57.7319 13.5787 57.1773 14.496C56.6226 15.4133 56.2066 16.2027 55.9293 16.864C55.6733 17.5253 55.5453 17.984 55.5453 18.24C55.5453 18.4747 55.6626 18.6987 55.8973 18.912C56.1319 19.1253 57.2733 19.232 59.3213 19.232C60.2386 19.232 60.8573 19.2213 61.1772 19.2C61.4973 19.1573 61.6679 19.136 61.6893 19.136C61.8813 19.136 61.9773 19.2107 61.9773 19.36C61.9773 19.4453 61.9666 19.5093 61.9453 19.552C61.6466 20.2773 61.2839 20.7787 60.8573 21.056C60.4519 21.312 59.7586 21.44 58.7773 21.44ZM58.3938 33.216C58.3938 32.3627 58.7458 31.04 59.4498 29.248C60.1538 27.4347 60.9431 25.6747 61.8177 23.968C62.6924 22.2613 63.8764 20.16 65.3698 17.664C67.5884 13.9733 69.8711 10.3147 72.2178 6.688C72.5804 6.112 73.1458 5.64267 73.9138 5.28C74.6818 4.91733 75.3751 4.736 75.9938 4.736C76.6124 4.736 76.9324 4.90667 76.9538 5.248C76.9538 5.35467 76.8898 5.472 76.7618 5.6C76.0364 6.26133 74.8204 7.79733 73.1138 10.208C71.4071 12.5973 69.5938 15.3387 67.6738 18.432C65.7751 21.5253 64.1004 24.7893 62.6498 28.224C61.2204 31.6587 60.5058 34.464 60.5058 36.64C60.5058 36.96 60.4098 37.12 60.2178 37.12C59.8551 37.12 59.5458 36.9813 59.2898 36.704C59.0338 36.448 58.8524 36.1173 58.7458 35.712C58.5111 34.9013 58.3938 34.0693 58.3938 33.216ZM65.3978 33.632C65.0991 33.632 64.7684 33.44 64.4058 33.056C64.0431 32.6933 63.8618 32.2453 63.8618 31.712C63.8618 31.4133 64.5551 29.9093 65.9418 27.2C67.3498 24.4693 68.0751 22.624 68.1178 21.664C68.1178 21.3653 68.3098 21.088 68.6938 20.832C69.3764 20.4267 70.3898 20.224 71.7338 20.224C71.9898 20.224 72.2564 20.2773 72.5338 20.384C72.8324 20.4693 72.9818 20.5973 72.9818 20.768C72.9818 20.8533 72.9498 20.928 72.8858 20.992C72.0751 22.016 70.8911 23.8613 69.3338 26.528C67.7764 29.1947 66.6031 31.36 65.8138 33.024C65.7071 33.4293 65.5684 33.632 65.3978 33.632ZM72.4058 18.432C71.4671 18.432 70.9764 18.0587 70.9338 17.312V17.28C70.9338 16.64 71.2431 16.1173 71.8618 15.712C72.5018 15.3067 73.1311 15.104 73.7498 15.104C74.6884 15.104 75.1791 15.4773 75.2218 16.224C75.2218 16.864 74.9124 17.3973 74.2938 17.824C73.6751 18.2293 73.0458 18.432 72.4058 18.432ZM66.3915 48.096C67.3088 48.096 68.7488 46.6133 70.7115 43.648C72.6955 40.704 74.4555 37.76 75.9915 34.816C77.5275 31.872 78.2955 30.2507 78.2955 29.952C78.2955 29.632 78.2102 29.472 78.0395 29.472C77.8688 29.472 77.5808 29.6427 77.1755 29.984C76.7702 30.304 76.3328 30.6667 75.8635 31.072C75.4155 31.4773 74.8288 31.84 74.1035 32.16C73.3995 32.5013 72.6955 32.672 71.9915 32.672C71.1168 32.672 70.6795 32.0213 70.6795 30.72C70.6795 29.6747 70.9675 28.5013 71.5435 27.2C72.1195 25.8773 72.9088 24.608 73.9115 23.392C74.9142 22.1547 76.2262 21.12 77.8475 20.288C79.4688 19.456 81.2075 19.04 83.0635 19.04C83.5328 19.04 84.0448 19.1253 84.5995 19.296C85.7088 19.6373 86.2635 20.256 86.2635 21.152C86.2635 21.792 86.0822 22.112 85.7195 22.112C85.6128 22.112 85.4315 22.0373 85.1755 21.888C84.4075 21.376 83.2235 21.12 81.6235 21.12C80.0235 21.12 78.4662 21.92 76.9515 23.52C75.4582 25.0987 74.7115 26.6453 74.7115 28.16C74.7115 28.6933 74.9355 28.96 75.3835 28.96C76.0662 28.96 77.0048 28.48 78.1995 27.52C79.4155 26.5387 80.6208 25.0987 81.8155 23.2C81.8795 22.9013 82.3702 22.752 83.2875 22.752C84.2048 22.752 84.6635 22.912 84.6635 23.232C84.6635 23.4667 83.9168 25.0027 82.4235 27.84C80.9515 30.656 79.7035 32.9707 78.6795 34.784C77.6555 36.6187 76.4182 38.6453 74.9675 40.864C73.5382 43.0827 72.1835 44.992 70.9035 46.592C69.6235 48.192 68.2902 49.536 66.9035 50.624C65.5168 51.7333 64.2795 52.288 63.1915 52.288C62.2955 52.288 61.8475 51.5413 61.8475 50.048C61.8475 48.5547 62.2848 46.8907 63.1595 45.056C64.0342 43.2427 65.0902 41.568 66.3275 40.032C67.5435 38.5173 68.8448 37.2267 70.2315 36.16C71.6182 35.0933 72.7808 34.56 73.7195 34.56H73.8155C74.0715 34.56 74.1995 34.6347 74.1995 34.784C74.1995 34.9333 74.0715 35.072 73.8155 35.2C73.0048 35.6053 71.9702 36.5013 70.7115 37.888C69.4742 39.296 68.3542 40.9067 67.3515 42.72C66.3275 44.5333 65.8155 46.0587 65.8155 47.296V47.328C65.8155 47.84 66.0075 48.096 66.3915 48.096ZM97.5995 20.16C98.5168 20.16 98.9755 20.6933 98.9755 21.76C98.9755 22.8267 98.6022 24.1707 97.8555 25.792C96.7675 28.0747 95.5302 30.048 94.1435 31.712C93.4822 32.5013 92.6502 32.896 91.6475 32.896C91.3275 32.896 91.1675 32.8107 91.1675 32.64L91.2955 32.288C92.2982 30.816 93.1835 29.3013 93.9515 27.744C94.7408 26.1653 95.1355 25.024 95.1355 24.32C95.1355 24.192 95.0928 24.0853 95.0075 24C94.9435 23.9147 94.8262 23.8613 94.6555 23.84C93.7808 23.84 92.5968 24.5547 91.1035 25.984C89.6315 27.4133 88.3515 28.8533 87.2635 30.304C86.1968 31.7547 85.5035 32.7573 85.1835 33.312C84.8848 33.888 84.5755 34.2293 84.2555 34.336C83.9355 34.464 83.4128 34.528 82.6875 34.528C81.9622 34.528 81.5995 34.4 81.5995 34.144C81.5995 34.0587 81.7062 33.856 81.9195 33.536C82.1115 33.216 82.8688 31.776 84.1915 29.216C85.5355 26.656 86.9435 24.0533 88.4155 21.408C89.9088 18.7413 91.5302 16.0213 93.2795 13.248C95.0502 10.4747 96.8102 8.21333 98.5595 6.464C100.33 4.69333 101.866 3.808 103.168 3.808C104.17 3.808 104.672 4.39467 104.672 5.568C104.672 7.82933 103.637 10.2507 101.568 12.832C99.5195 15.4133 97.6422 17.0987 95.9355 17.888C95.5515 18.0587 95.1462 18.144 94.7195 18.144C94.3142 18.144 94.1115 18.048 94.1115 17.856L94.3035 17.536C96.3942 16.0853 98.0475 14.4107 99.2635 12.512C100.501 10.6133 101.12 9.28 101.12 8.512C101.12 8.256 101.088 8.08533 101.024 8C100.96 7.89333 100.81 7.84 100.576 7.84C99.8075 7.84 98.5488 9.088 96.7995 11.584C95.0715 14.08 93.5142 16.6507 92.1275 19.296C90.7408 21.9413 90.0475 23.552 90.0475 24.128C90.0475 24.3627 90.1222 24.48 90.2715 24.48C90.4422 24.48 90.6662 24.3733 90.9435 24.16C91.2635 23.8613 91.6688 23.488 92.1595 23.04C92.6715 22.592 93.5142 22.0053 94.6875 21.28C95.8822 20.5333 96.8528 20.16 97.5995 20.16ZM113.878 11.552L115.446 11.488C115.659 11.488 115.766 11.5307 115.766 11.616C115.766 11.7013 115.744 11.808 115.702 11.936C115.659 12.064 115.563 12.224 115.414 12.416C115.286 12.608 115.126 12.7787 114.934 12.928C114.422 13.3333 113.782 13.536 113.014 13.536C112.267 13.536 111.712 13.5573 111.35 13.6C111.008 13.6427 110.71 13.7493 110.454 13.92C110.198 14.0907 110.027 14.2187 109.942 14.304C109.856 14.3893 109.707 14.6027 109.494 14.944C109.28 15.2853 109.131 15.52 109.046 15.648C107.915 17.2267 106.08 20.2027 103.542 24.576C101.024 28.9493 99.4562 32.3307 98.8375 34.72C98.7735 34.9333 98.5708 35.04 98.2295 35.04C97.9095 35.04 97.4615 34.7627 96.8855 34.208C96.3095 33.6533 96.0215 33.088 96.0215 32.512C96.0215 31.936 96.8855 30.2187 98.6135 27.36C100.363 24.5013 102.112 21.696 103.862 18.944C105.611 16.1707 106.486 14.6347 106.486 14.336C106.486 14.016 106.358 13.824 106.102 13.76C105.846 13.6747 105.398 13.632 104.758 13.632H103.702C103.424 13.632 103.286 13.504 103.286 13.248C103.286 12.992 103.403 12.7253 103.638 12.448C103.894 12.1493 104.267 11.8933 104.758 11.68C105.27 11.4667 105.782 11.2533 106.294 11.04C106.827 10.8267 107.51 10.3467 108.342 9.6C109.195 8.85333 110.048 7.89333 110.902 6.72C111.435 5.99467 112.352 5.632 113.654 5.632C114.102 5.632 114.326 5.77066 114.326 6.048C114.326 6.21867 113.846 6.99733 112.885 8.384C111.926 9.77067 111.446 10.6453 111.446 11.008C111.446 11.3493 111.766 11.52 112.406 11.52C112.662 11.5413 113.152 11.552 113.878 11.552Z" fill="black"/>
<ellipse cx="151.776" cy="31.442" rx="8" ry="7" transform="rotate(-14 151.776 31.442)" fill="black"/>
<path d="M195.617 20.235L153.1 32.6207L152.262 29.2595L195.375 19.2648L195.617 20.235Z" fill="black"/>
<path d="M108.048 42.0685L150.564 29.6829L151.403 33.0441L108.29 43.0388L108.048 42.0685Z" fill="black"/>
<rect x="146.693" y="15.189" width="2" height="15" transform="rotate(-14 146.693 15.189)" fill="black"/>
<rect x="136.985" y="25.8544" width="25" height="2" transform="rotate(-14 136.985 25.8544)" fill="black"/>
<path d="M145.249 30.0642C145.059 29.3012 145.428 28.5052 146.144 28.1806C149.3 26.7503 151.628 26.1572 155.199 25.9226C155.994 25.8703 156.704 26.4063 156.897 27.1797V27.1797C157.141 28.1585 156.473 29.1274 155.475 29.2707C152.519 29.6946 150.336 30.1874 147.5 31.2298C146.55 31.5787 145.493 31.0455 145.249 30.0642V30.0642Z" fill="white"/>
</svg>
