<svg width="91" height="24" viewBox="0 0 91 24" fill="none" xmlns="http://www.w3.org/2000/svg">
<ellipse cx="45" cy="17" rx="8" ry="7" fill="black"/>
<path d="M90.25 16.7321L46 18.4641L46 15L90.25 15.7321L90.25 16.7321Z" fill="black"/>
<path d="M0 16.7321L44.25 15V18.4641L-3.19992e-08 17.7321L0 16.7321Z" fill="black"/>
<rect x="44" width="2" height="15" fill="black"/>
<rect x="32" y="8" width="25" height="2" fill="black"/>
<path d="M39 14.0839C39 13.2976 39.551 12.6146 40.3245 12.4729C43.7327 11.8486 46.1348 11.8363 49.6562 12.4725C50.4406 12.6142 51 13.306 51 14.1031V14.1031C51 15.1119 50.1175 15.8905 49.114 15.7879C46.1436 15.4842 43.906 15.4342 40.902 15.7595C39.8964 15.8683 39 15.0954 39 14.0839V14.0839Z" fill="white"/>
</svg>
